<?xml version="1.0" standalone="no"?>
<svg xmlns="http://www.w3.org/2000/svg" viewBox="0 0 205.56000000000003 52.68" width="205.56000000000003" height="52.68"><rect fill="none" stroke="#cf2739" stroke-width="4" width="201.56000000000003" height="48.68" x="2" y="2"></rect><g fill="#000000" color="#000000" transform="translate(164.881 12) scale(0.2868)"><svg width="100.0" height="100.0" x="0.0" y="0.0" viewBox="0 0 100 100"><g><g><path d="M82.1,20.871c-0.016-0.801-0.563-1.254-1.171-1.478l-28.733-7.502c-0.676-0.169-1.395-0.363-2.068-0.363    c-0.676,0-1.315,0.145-1.889,0.417l-0.7,0.405L20.045,28.321c-0.091,0.061-0.179,0.127-0.267,0.193    c-4.291,2.829-5.058,5.846-5.058,9.212V69.36c0,1.614,0.858,3.028,2.147,3.809l0.03,0.019l27.661,15.958    c0.3,0.182,0.655,0.287,1.031,0.287c1.098,0,1.989-0.889,1.989-1.982V55.457c0-1.535-0.779-2.887-1.962-3.688l-0.618-0.351    L22.58,38.776c-1.725-1.019-1.88-3.013-1.364-4.21c0.743-1.711,2.565-2.041,3.832-1.732l23.328,5.976    c0.785,0.181,1.349,0.344,2.056,0.344c0.715,0,1.391-0.166,1.992-0.465l0.4-0.227l28.079-15.835    C81.414,22.27,82.118,21.666,82.1,20.871z M83.655,32.492l-6.916-3.805l-5.536,3.207c0,0,6.349,3.5,7.419,4.225    c1.295,0.876,0.785,2.164-0.07,2.645L56.119,51.419l-0.609,0.342c-0.003,0.003-0.007,0.006-0.01,0.009    c-1.186,0.801-1.961,2.152-1.961,3.688V87.45c0,1.094,0.888,1.982,1.985,1.982c0.343,0,0.667-0.088,0.949-0.241    c0.027-0.013,0.055-0.028,0.082-0.046l27.651-15.953l0.039-0.023c1.286-0.78,2.146-2.194,2.146-3.809V37.727    C86.393,34.967,85.708,33.647,83.655,32.492z"></path></g></g></svg></g><path fill="#000000" fill-rule="nonzero" d="M7.36 28.24L0.20 28.28Q0 28.28 0 28.08L0 28.08L0.08 0.60Q0.08 0.44 0.24 0.44L0.24 0.44L7.72 0.40Q9.92 0.36 11.74 1.44Q13.56 2.52 14.64 4.34Q15.72 6.16 15.72 8.36L15.72 8.36L15.72 19.84Q15.72 22.16 14.60 24.06Q13.48 25.96 11.60 27.08Q9.72 28.20 7.36 28.24L7.36 28.24ZM4.92 5.24L4.88 23.36L7.36 23.36Q8.84 23.36 9.86 22.32Q10.88 21.28 10.88 19.84L10.88 19.84L10.88 8.32Q10.88 7.04 9.94 6.10Q9 5.16 7.72 5.20L7.72 5.20L4.92 5.24ZM16.72 28.08L16.72 28.08L21.68 0.60Q21.72 0.44 21.88 0.44L21.88 0.44L27.68 0.44Q27.84 0.44 27.88 0.60L27.88 0.60L32.64 28.08Q32.68 28.28 32.48 28.28L32.48 28.28L28.04 28.28Q27.88 28.28 27.84 28.08L27.84 28.08L27.40 25.16L21.96 25.16L21.52 28.08Q21.48 28.28 21.32 28.28L21.32 28.28L16.88 28.28Q16.72 28.28 16.72 28.08ZM24.56 9.64L22.76 20.88L26.60 20.88L24.96 9.64L24.72 8.16L24.56 9.64ZM39.52 28.28L35.52 28.28Q35.20 28.28 35.20 28L35.20 28L35.16 0.76Q35.16 0.44 35.48 0.44L35.48 0.44L39.08 0.44L45.84 16.20L45.64 0.76Q45.64 0.44 46 0.44L46 0.44L49.96 0.44Q50.20 0.44 50.20 0.76L50.20 0.76L50.24 28.04Q50.24 28.28 50.04 28.28L50.04 28.28L46.52 28.28L39.60 13.56L39.88 27.96Q39.88 28.28 39.52 28.28L39.52 28.28ZM58.40 28.28L53.88 28.28Q53.72 28.28 53.72 28.08L53.72 28.08L53.80 0.64Q53.80 0.44 53.96 0.44L53.96 0.44L58.44 0.44Q58.60 0.44 58.60 0.64L58.60 0.64L58.60 10.12L64.88 0.60Q65 0.44 65.16 0.44L65.16 0.44L69.76 0.44Q69.92 0.44 69.84 0.60L69.84 0.60L62.92 11.64L70.68 28.12Q70.76 28.28 70.48 28.28L70.48 28.28L65.60 28.28Q65.40 28.28 65.36 28.12L65.36 28.12L59.96 16.36L58.56 18.56L58.56 28.08Q58.56 28.28 58.40 28.28L58.40 28.28ZM80.40 28.28L75.88 28.28Q75.72 28.28 75.72 28.08L75.72 28.08L75.72 5.28L70.52 5.28Q70.32 5.28 70.32 5.08L70.32 5.08L70.36 0.60Q70.36 0.44 70.52 0.44L70.52 0.44L85.72 0.44Q85.92 0.44 85.92 0.60L85.92 0.60L85.92 5.08Q85.92 5.28 85.76 5.28L85.76 5.28L80.52 5.28L80.56 28.08Q80.56 28.28 80.40 28.28L80.40 28.28ZM100.96 28.28L88.04 28.28Q87.88 28.28 87.88 28.08L87.88 28.08L87.92 0.60Q87.92 0.44 88.08 0.44L88.08 0.44L100.92 0.44Q101.08 0.44 101.08 0.64L101.08 0.64L101.08 5.12Q101.08 5.28 100.92 5.28L100.92 5.28L92.72 5.28L92.72 11.52L100.92 11.52Q101.08 11.52 101.08 11.68L101.08 11.68L101.12 16.20Q101.12 16.36 100.96 16.36L100.96 16.36L92.72 16.36L92.72 23.36L100.96 23.36Q101.12 23.36 101.12 23.56L101.12 23.56L101.12 28.12Q101.12 28.28 100.96 28.28L100.96 28.28ZM111.40 28.68L111.40 28.68Q109.20 28.68 107.42 27.58Q105.64 26.48 104.60 24.64Q103.56 22.80 103.56 20.52L103.56 20.52L103.60 8.04Q103.60 5.84 104.62 4.02Q105.64 2.20 107.42 1.10Q109.20 0 111.40 0L111.40 0Q113.60 0 115.36 1.08Q117.12 2.16 118.16 3.98Q119.20 5.80 119.20 8.04L119.20 8.04L119.20 9.88Q119.20 10.04 119.04 10.04L119.04 10.04L114.56 10.04Q114.40 10.04 114.40 9.88L114.40 9.88L114.40 8.04Q114.40 6.72 113.54 5.76Q112.68 4.80 111.40 4.80L111.40 4.80Q109.96 4.80 109.20 5.78Q108.44 6.76 108.44 8.04L108.44 8.04L108.44 20.52Q108.44 22 109.30 22.92Q110.16 23.84 111.40 23.84L111.40 23.84Q112.68 23.84 113.54 22.82Q114.40 21.80 114.40 20.52L114.40 20.52L114.40 18.68Q114.40 18.52 114.56 18.52L114.56 18.52L119.08 18.52Q119.24 18.52 119.24 18.68L119.24 18.68L119.24 20.52Q119.24 22.80 118.18 24.64Q117.12 26.48 115.36 27.58Q113.60 28.68 111.40 28.68ZM126.84 28.28L122.32 28.28Q122.16 28.28 122.16 28.08L122.16 28.08L122.20 0.60Q122.20 0.44 122.40 0.44L122.40 0.44L126.84 0.44Q127.04 0.44 127.04 0.60L127.04 0.60L127.00 11.48L133.00 11.48L133.00 0.60Q133.00 0.44 133.16 0.44L133.16 0.44L137.60 0.44Q137.80 0.44 137.80 0.60L137.80 0.60L137.88 28.08Q137.88 28.28 137.68 28.28L137.68 28.28L133.20 28.28Q133.00 28.28 133.00 28.08L133.00 28.08L133.00 16.32L127.00 16.32L127.00 28.08Q127.00 28.28 126.84 28.28L126.84 28.28Z" transform="translate(12 12) scale(1)"></path></svg>