<?xml version="1.0" standalone="no"?>
<svg xmlns="http://www.w3.org/2000/svg" viewBox="0 0 156 29" width="156" height="29"><path fill="#ea1538" fill-rule="nonzero" d="M1.08 17.64Q0.62 17.64 0.31 17.33Q0 17.02 0 16.56L0 16.56L0 1.99Q0 1.54 0.31 1.21Q0.62 0.89 1.08 0.89L1.08 0.89L5.90 0.89Q8.64 0.89 10.55 2.10Q12.46 3.31 13.42 5.23Q14.38 7.15 14.38 9.26L14.38 9.26Q14.38 11.38 13.42 13.30Q12.46 15.22 10.55 16.43Q8.64 17.64 5.90 17.64L5.90 17.64L1.08 17.64ZM2.18 15.60L5.64 15.60Q7.61 15.60 9.10 14.80Q10.58 13.99 11.40 12.56Q12.22 11.14 12.22 9.26L12.22 9.26Q12.22 7.39 11.40 5.96Q10.58 4.54 9.10 3.73Q7.61 2.93 5.64 2.93L5.64 2.93L2.18 2.93L2.18 15.60ZM20.47 17.88Q19.42 17.88 18.52 17.45Q17.62 17.02 17.09 16.19Q16.56 15.36 16.56 14.28L16.56 14.28Q16.56 12.50 17.96 11.45Q19.37 10.39 22.08 10.39L22.08 10.39L24.98 10.39L24.98 10.20Q24.98 8.62 24.20 7.92Q23.42 7.22 21.77 7.22L21.77 7.22Q20.86 7.22 20.15 7.37Q19.44 7.51 18.58 7.80L18.58 7.80Q18.38 7.85 18.26 7.85L18.26 7.85Q17.90 7.85 17.64 7.58Q17.38 7.32 17.38 6.94L17.38 6.94Q17.38 6.29 18 6.02L18 6.02Q20.04 5.16 22.15 5.16L22.15 5.16Q23.81 5.16 24.95 5.83Q26.09 6.50 26.63 7.57Q27.17 8.64 27.17 9.89L27.17 9.89L27.17 16.68Q27.17 17.14 26.84 17.45Q26.52 17.76 26.06 17.76L26.06 17.76Q25.61 17.76 25.30 17.45Q24.98 17.14 24.98 16.68L24.98 16.68L24.98 16.06Q23.21 17.88 20.47 17.88L20.47 17.88ZM21.29 15.96Q22.34 15.96 23.33 15.44Q24.31 14.93 24.98 14.16L24.98 14.16L24.98 12.14L22.37 12.14Q18.74 12.14 18.74 14.04L18.74 14.04Q18.74 14.90 19.33 15.43Q19.92 15.96 21.29 15.96L21.29 15.96ZM31.92 17.76Q31.46 17.76 31.15 17.45Q30.84 17.14 30.84 16.68L30.84 16.68L30.84 6.38Q30.84 5.93 31.15 5.60Q31.46 5.28 31.92 5.28L31.92 5.28Q32.38 5.28 32.70 5.60Q33.02 5.93 33.02 6.38L33.02 6.38L33.02 7.37Q33.94 6.36 34.99 5.76Q36.05 5.16 37.49 5.16L37.49 5.16Q38.81 5.16 39.78 5.78Q40.75 6.41 41.27 7.49Q41.78 8.57 41.78 9.86L41.78 9.86L41.78 16.68Q41.78 17.14 41.46 17.45Q41.14 17.76 40.68 17.76L40.68 17.76Q40.22 17.76 39.91 17.45Q39.60 17.14 39.60 16.68L39.60 16.68L39.60 10.10Q39.60 7.18 36.96 7.18L36.96 7.18Q35.76 7.18 34.81 7.80Q33.86 8.42 33.02 9.48L33.02 9.48L33.02 16.68Q33.02 17.14 32.70 17.45Q32.38 17.76 31.92 17.76L31.92 17.76ZM46.54 17.76Q46.08 17.76 45.77 17.45Q45.46 17.14 45.46 16.68L45.46 16.68L45.46 1.10Q45.46 0.65 45.77 0.32Q46.08 0 46.54 0L46.54 0Q46.99 0 47.32 0.32Q47.64 0.65 47.64 1.10L47.64 1.10L47.64 10.92L53.35 5.64Q53.71 5.33 54.07 5.33L54.07 5.33Q54.62 5.33 54.88 5.64Q55.13 5.95 55.13 6.38L55.13 6.38Q55.13 6.79 54.72 7.20L54.72 7.20L51.26 10.30L55.61 16.06Q55.85 16.37 55.85 16.70L55.85 16.70Q55.85 17.18 55.54 17.47Q55.22 17.76 54.74 17.76L54.74 17.76Q54.50 17.76 54.26 17.64Q54.02 17.52 53.86 17.30L53.86 17.30L49.73 11.69L47.64 13.58L47.64 16.68Q47.64 17.14 47.32 17.45Q46.99 17.76 46.54 17.76L46.54 17.76ZM63.94 17.76Q63.48 17.76 63.17 17.45Q62.86 17.14 62.86 16.68L62.86 16.68L62.86 2.93L57.96 2.93Q57.53 2.93 57.24 2.64Q56.95 2.35 56.95 1.92L56.95 1.92Q56.95 1.49 57.24 1.19Q57.53 0.89 57.96 0.89L57.96 0.89L69.91 0.89Q70.34 0.89 70.64 1.19Q70.94 1.49 70.94 1.92L70.94 1.92Q70.94 2.35 70.64 2.64Q70.34 2.93 69.91 2.93L69.91 2.93L65.04 2.93L65.04 16.68Q65.04 17.14 64.72 17.45Q64.39 17.76 63.94 17.76L63.94 17.76ZM77.09 17.88Q74.16 17.88 72.52 16.21Q70.87 14.54 70.87 11.52L70.87 11.52Q70.87 9.82 71.50 8.38Q72.12 6.94 73.42 6.05Q74.71 5.16 76.61 5.16L76.61 5.16Q78.38 5.16 79.68 5.99Q80.98 6.82 81.65 8.20Q82.32 9.58 82.32 11.21L82.32 11.21Q82.32 11.66 82.02 11.98Q81.72 12.29 81.22 12.29L81.22 12.29L73.08 12.29Q73.27 13.97 74.33 14.90Q75.38 15.84 77.28 15.84L77.28 15.84Q78.29 15.84 79.04 15.65Q79.80 15.46 80.52 15.10L80.52 15.10Q80.71 15 80.95 15L80.95 15Q81.34 15 81.62 15.26Q81.91 15.53 81.91 15.94L81.91 15.94Q81.91 16.46 81.29 16.82L81.29 16.82Q80.35 17.35 79.44 17.62Q78.53 17.88 77.09 17.88L77.09 17.88ZM73.08 10.51L80.16 10.51Q80.09 9.34 79.55 8.54Q79.01 7.75 78.22 7.38Q77.42 7.01 76.61 7.01L76.61 7.01Q75.79 7.01 75 7.38Q74.21 7.75 73.68 8.54Q73.15 9.34 73.08 10.51L73.08 10.51ZM90.86 17.88Q89.14 17.88 87.67 17.11Q86.21 16.34 85.33 14.90Q84.46 13.46 84.46 11.52L84.46 11.52Q84.46 9.58 85.33 8.14Q86.21 6.70 87.67 5.93Q89.14 5.16 90.86 5.16L90.86 5.16Q92.14 5.16 93.06 5.48Q93.98 5.81 94.78 6.31L94.78 6.31Q95.26 6.62 95.26 7.15L95.26 7.15Q95.26 7.51 94.98 7.81Q94.70 8.11 94.34 8.11L94.34 8.11Q94.08 8.11 93.82 7.97L93.82 7.97Q93.02 7.56 92.46 7.38Q91.90 7.20 91.06 7.20L91.06 7.20Q88.99 7.20 87.82 8.39Q86.64 9.58 86.64 11.52L86.64 11.52Q86.64 13.46 87.82 14.65Q88.99 15.84 91.06 15.84L91.06 15.84Q91.90 15.84 92.46 15.66Q93.02 15.48 93.82 15.07L93.82 15.07Q94.08 14.93 94.34 14.93L94.34 14.93Q94.70 14.93 94.98 15.23Q95.26 15.53 95.26 15.89L95.26 15.89Q95.26 16.42 94.78 16.73L94.78 16.73Q93.98 17.23 93.06 17.56Q92.14 17.88 90.86 17.88L90.86 17.88ZM99.07 17.76Q98.62 17.76 98.30 17.45Q97.99 17.14 97.99 16.68L97.99 16.68L97.99 1.10Q97.99 0.65 98.30 0.32Q98.62 0 99.07 0L99.07 0Q99.53 0 99.85 0.32Q100.18 0.65 100.18 1.10L100.18 1.10L100.18 7.37Q101.09 6.36 102.14 5.76Q103.20 5.16 104.64 5.16L104.64 5.16Q105.96 5.16 106.93 5.78Q107.90 6.41 108.42 7.49Q108.94 8.57 108.94 9.86L108.94 9.86L108.94 16.68Q108.94 17.14 108.61 17.45Q108.29 17.76 107.83 17.76L107.83 17.76Q107.38 17.76 107.06 17.45Q106.75 17.14 106.75 16.68L106.75 16.68L106.75 10.10Q106.75 7.18 104.11 7.18L104.11 7.18Q102.91 7.18 101.96 7.80Q101.02 8.42 100.18 9.48L100.18 9.48L100.18 16.68Q100.18 17.14 99.85 17.45Q99.53 17.76 99.07 17.76L99.07 17.76Z" transform="translate(0, 5.56)"></path><line x1="117.936" y1="2%" x2="117.936" y2="98%" stroke="#ea1538" stroke-linecap="round"></line><g fill="#9a0e25" color="#9a0e25" transform="translate(126.936 0) scale(0.29)"><svg width="100.0" height="100.0" x="0.0" y="0.0" viewBox="0 0 100 100"><defs><style type="text/css">
   
    .fil0 {fill:currentColor}
   
  </style></defs><g><path class="fil0" d="M27 20l46 0c4,0 7,3 7,7l0 46c0,4 -3,7 -7,7l-46 0c-4,0 -7,-3 -7,-7l0 -46c0,-4 3,-7 7,-7zm33 26c2,0 3,2 3,3 0,2 -2,3 -3,3 -2,0 -3,-2 -3,-3 0,-2 2,-3 3,-3zm-20 0c2,0 3,2 3,3 0,2 -2,3 -3,3 -2,0 -3,-2 -3,-3 0,-2 2,-3 3,-3zm10 0c2,0 3,2 3,3 0,2 -2,3 -3,3 -2,0 -3,-2 -3,-3 0,-2 2,-3 3,-3zm-24 -21l0 48 48 0 0 -48 -48 0z"></path></g></svg></g></svg>